<?xml version="1.0" encoding="utf-8"?>
<svg version="1.1" xmlns:xlink="http://www.w3.org/1999/xlink" width="18px" height="30px" xmlns="http://www.w3.org/2000/svg">
  <g transform="matrix(1 0 0 1 -394 -285 )">
    <path d="M 17.666015625 18.1321022727273  C 17.888671875 18.4019886363636  18 18.7215909090909  18 19.0909090909091  C 18 19.4602272727273  17.888671875 19.7798295454545  17.666015625 20.0497159090909  L 9.791015625 29.5951704545455  C 9.568359375 29.8650568181818  9.3046875 30  9 30  C 8.6953125 30  8.431640625 29.8650568181818  8.208984375 29.5951704545455  L 0.333984375 20.0497159090909  C 0.111328125 19.7798295454545  0 19.4602272727273  0 19.0909090909091  C 0 18.7215909090909  0.111328125 18.4019886363636  0.333984375 18.1321022727273  C 0.556640625 17.8622159090909  0.8203125 17.7272727272727  1.125 17.7272727272727  L 16.875 17.7272727272727  C 17.1796875 17.7272727272727  17.443359375 17.8622159090909  17.666015625 18.1321022727273  Z M 17.666015625 9.95028409090909  C 17.888671875 10.2201704545454  18 10.5397727272727  18 10.9090909090909  C 18 11.2784090909091  17.888671875 11.5980113636364  17.666015625 11.8678977272727  C 17.443359375 12.1377840909091  17.1796875 12.2727272727273  16.875 12.2727272727273  L 8 12.2727272727273  L 1.125 12.2727272727273  C 0.8203125 12.2727272727273  0.556640625 12.1377840909091  0.333984375 11.8678977272727  C 0.111328125 11.5980113636364  0 11.2784090909091  0 10.9090909090909  C 0 10.5397727272727  0.111328125 10.2201704545454  0.333984375 9.95028409090909  L 8.208984375 0.404829545454544  C 8.431640625 0.134943181818178  8.6953125 0  9 0  C 9.3046875 0  9.568359375 0.134943181818178  9.791015625 0.404829545454544  L 17.666015625 9.95028409090909  Z " fill-rule="nonzero" fill="#000000" stroke="none" transform="matrix(1 0 0 1 394 285 )" />
  </g>
</svg>