<?xml version="1.0" encoding="utf-8"?>
<svg version="1.1" xmlns:xlink="http://www.w3.org/1999/xlink" width="14px" height="31px" xmlns="http://www.w3.org/2000/svg">
  <g transform="matrix(1 0 0 1 -1323 -279 )">
    <path d="M 13.740234375 18.7365056818182  C 13.9134114583333 19.0153882575758  14 19.3456439393939  14 19.7272727272727  C 14 20.1089015151515  13.9134114583333 20.4391571969697  13.740234375 20.7180397727273  L 7.615234375 30.5816761363636  C 7.44205729166667 30.8605587121212  7.23697916666667 31  7 31  C 6.76302083333333 31  6.55794270833333 30.8605587121212  6.384765625 30.5816761363636  L 0.259765625 20.7180397727273  C 0.0865885416666667 20.4391571969697  0 20.1089015151515  0 19.7272727272727  C 0 19.3456439393939  0.0865885416666667 19.0153882575758  0.259765625 18.7365056818182  C 0.432942708333333 18.4576231060606  0.638020833333333 18.3181818181818  0.875 18  L 13.125 18  C 13.3619791666667 18.3181818181818  13.5670572916667 18.4576231060606  13.740234375 18.7365056818182  Z M 13.740234375 10.2819602272727  C 13.9134114583333 10.5608428030303  14 10.8910984848485  14 11.2727272727273  C 14 11.6543560606061  13.9134114583333 11.9846117424242  13.740234375 12.2634943181818  C 13.5670572916667 12.5423768939394  13.3619791666667 12.6818181818182  13.125 12.6818181818182  L 6.22222222222222 12.6818181818182  L 0.875 12.6818181818182  C 0.638020833333333 12.6818181818182  0.432942708333333 12.5423768939394  0.259765625 12.2634943181818  C 0.0865885416666667 11.9846117424242  0 11.6543560606061  0 11.2727272727273  C 0 10.8910984848485  0.0865885416666667 10.5608428030303  0.259765625 10.2819602272727  L 6.384765625 0.418323863636362  C 6.55794270833333 0.139441287878784  6.76302083333333 0  7 0  C 7.23697916666667 0  7.44205729166667 0.139441287878784  7.615234375 0.418323863636362  L 13.740234375 10.2819602272727  Z " fill-rule="nonzero" fill="#000000" stroke="none" transform="matrix(1 0 0 1 1323 279 )" />
  </g>
</svg>