<?xml version="1.0" encoding="utf-8"?>
<svg version="1.1" xmlns:xlink="http://www.w3.org/1999/xlink" width="24px" height="24px" xmlns="http://www.w3.org/2000/svg">
  <g transform="matrix(1 0 0 1 -349 -214 )">
    <path d="M 19.40625 19.40625  C 19.8020833333333 19.0104166666667  20 18.5416666666667  20 18  C 20 17.4583333333333  19.8020833333333 16.9895833333333  19.40625 16.59375  C 19.0104166666667 16.1979166666667  18.5416666666667 16  18 16  C 17.4583333333333 16  16.9895833333333 16.1979166666667  16.59375 16.59375  C 16.1979166666667 16.9895833333333  16 17.4583333333333  16 18  C 16 18.5416666666667  16.1979166666667 19.0104166666667  16.59375 19.40625  C 16.9895833333333 19.8020833333333  17.4583333333333 20  18 20  C 18.5416666666667 20  19.0104166666667 19.8020833333333  19.40625 19.40625  Z M 7.40625 7.40625  C 7.80208333333333 7.01041666666666  8 6.54166666666666  8 6  C 8 5.45833333333333  7.80208333333333 4.98958333333333  7.40625 4.59375  C 7.01041666666667 4.19791666666666  6.54166666666667 4  6 4  C 5.45833333333333 4  4.98958333333333 4.19791666666666  4.59375 4.59375  C 4.19791666666667 4.98958333333333  4 5.45833333333333  4 6  C 4 6.54166666666666  4.19791666666667 7.01041666666666  4.59375 7.40625  C 4.98958333333333 7.80208333333333  5.45833333333333 8  6 8  C 6.54166666666667 8  7.01041666666667 7.80208333333333  7.40625 7.40625  Z M 22.2421875 13.7578125  C 23.4140625 14.9296875  24 16.34375  24 18  C 24 19.65625  23.4140625 21.0703125  22.2421875 22.2421875  C 21.0703125 23.4140625  19.65625 24  18 24  C 16.34375 24  14.9296875 23.4140625  13.7578125 22.2421875  C 12.5859375 21.0703125  12 19.65625  12 18  C 12 16.34375  12.5859375 14.9296875  13.7578125 13.7578125  C 14.9296875 12.5859375  16.34375 12  18 12  C 19.65625 12  21.0703125 12.5859375  22.2421875 13.7578125  Z M 22.203125 0.296874999999999  C 22.4010416666667 0.494791666666663  22.5 0.729166666666663  22.5 0.999999999999999  C 22.5 1.20833333333333  22.4322916666667 1.40625  22.296875 1.59375  L 5.796875 23.59375  C 5.59895833333333 23.8645833333333  5.33333333333333 24  5 24  L 2.5 24  C 2.22916666666667 24  1.99479166666667 23.9010416666667  1.796875 23.703125  C 1.59895833333333 23.5052083333333  1.5 23.2708333333333  1.5 23  C 1.5 22.7916666666667  1.56770833333333 22.59375  1.703125 22.40625  L 18.203125 0.406250000000001  C 18.4010416666667 0.135416666666665  18.6666666666667 0  19 0  L 21.5 0  C 21.7708333333333 0  22.0052083333333 0.0989583333333321  22.203125 0.296874999999999  Z M 10.2421875 1.7578125  C 11.4140625 2.9296875  12 4.34375  12 6  C 12 7.65625  11.4140625 9.0703125  10.2421875 10.2421875  C 9.0703125 11.4140625  7.65625 12  6 12  C 4.34375 12  2.9296875 11.4140625  1.7578125 10.2421875  C 0.5859375 9.0703125  0 7.65625  0 6  C 0 4.34375  0.5859375 2.9296875  1.7578125 1.7578125  C 2.9296875 0.5859375  4.34375 0  6 0  C 7.65625 0  9.0703125 0.5859375  10.2421875 1.7578125  Z " fill-rule="nonzero" fill="#000000" stroke="none" transform="matrix(1 0 0 1 349 214 )" />
  </g>
</svg>