<?xml version="1.0" encoding="utf-8"?>
<svg version="1.1" xmlns:xlink="http://www.w3.org/1999/xlink" width="48px" height="20px" xmlns="http://www.w3.org/2000/svg">
  <g transform="matrix(1 0 0 1 -233 -273 )">
    <path d="M 28.4223602484472 9.53907815631263  C 28.7536231884058 9.67267869071476  28.9192546583851 9.82631930527722  28.9192546583851 10  C 28.9192546583851 10.1736806947228  28.7536231884058 10.3273213092852  28.4223602484472 10.4609218436874  L 5.26708074534162 19.7995991983968  C 4.93581780538302 19.9331997327989  4.55486542443064 20  4.12422360248447 20  C 3.6935817805383 20  3.31262939958592 19.9331997327989  2.98136645962733 19.7995991983968  L 0.496894409937888 18.7975951903808  C 0.165631469979296 18.6639946559786  0 18.5103540414162  0 18.3366733466934  C 0 18.1629926519706  0.165631469979296 18.0093520374081  0.496894409937888 17.875751503006  L 20.0248447204969 10  L 0.496894409937888 2.12424849699399  C 0.165631469979296 1.99064796259185  0 1.83700734802939  0 1.66332665330661  C 0 1.48964595858383  0.165631469979296 1.33600534402137  0.496894409937888 1.20240480961924  L 2.98136645962733 0.200400801603207  C 3.31262939958592 0.0668002672010681  3.6935817805383 0  4.12422360248447 0  C 4.55486542443064 0  4.93581780538302 0.0668002672010681  5.26708074534162 0.200400801603207  L 28.4223602484472 9.53907815631263  Z M 47.5031055900621 9.53907815631263  C 47.8343685300207 9.67267869071476  48 9.82631930527722  48 10  C 48 10.1736806947228  47.8343685300207 10.3273213092852  47.5031055900621 10.4609218436874  L 24.3478260869565 19.7995991983968  C 24.0165631469979 19.9331997327989  23.6356107660455 20  23.2049689440994 20  C 22.7743271221532 20  22.3933747412008 19.9331997327989  22.0621118012422 19.7995991983968  L 19.5776397515528 18.7975951903808  C 19.2463768115942 18.6639946559786  19.0807453416149 18.5103540414162  19.0807453416149 18.3366733466934  C 19.0807453416149 18.1629926519706  19.2463768115942 18.0093520374081  19.5776397515528 17.875751503006  L 39.1055900621118 10  L 19.5776397515528 2.12424849699399  C 19.2463768115942 1.99064796259185  19.0807453416149 1.83700734802939  19.0807453416149 1.66332665330661  C 19.0807453416149 1.48964595858383  19.2463768115942 1.33600534402137  19.5776397515528 1.20240480961924  L 22.0621118012422 0.200400801603207  C 22.3933747412008 0.0668002672010681  22.7743271221532 0  23.2049689440994 0  C 23.6356107660455 0  24.0165631469979 0.0668002672010681  24.3478260869565 0.200400801603207  L 47.5031055900621 9.53907815631263  Z " fill-rule="nonzero" fill="#027db4" stroke="none" transform="matrix(1 0 0 1 233 273 )" />
  </g>
</svg>