<?xml version="1.0" encoding="utf-8"?>
<svg version="1.1" xmlns:xlink="http://www.w3.org/1999/xlink" width="208px" height="177px" xmlns="http://www.w3.org/2000/svg">
  <g transform="matrix(1 0 0 1 -193 -738 )">
    <path d="M 168.852272727273 81.5859375  C 169.738636363636 82.3401988636364  170.181818181818 83.3039772727273  170.181818181818 84.4772727272727  L 170.181818181818 92.5227272727273  C 170.181818181818 93.6960227272727  169.738636363636 94.6598011363636  168.852272727273 95.4140625  C 167.965909090909 96.1683238636364  166.833333333333 96.5454545454545  165.454545454545 96  L 113 96  L 113 140.795454545455  C 113.454545454545 141.96875  113.011363636364 142.932528409091  112.125 143.686789772727  C 111.238636363636 144.441051136364  110.106060606061 144.818181818182  108.727272727273 144.818181818182  L 99.2727272727273 144.818181818182  C 97.8939393939394 144.818181818182  96.7613636363636 144.441051136364  95.875 143.686789772727  C 94.9886363636364 142.932528409091  94.5454545454545 141.96875  95 140.795454545455  L 95 96  L 42.5454545454545 96  C 41.1666666666667 96.5454545454545  40.0340909090909 96.1683238636364  39.1477272727273 95.4140625  C 38.2613636363636 94.6598011363636  37.8181818181818 93.6960227272727  37.8181818181818 92.5227272727273  L 37.8181818181818 84.4772727272727  C 37.8181818181818 83.3039772727273  38.2613636363636 82.3401988636364  39.1477272727273 81.5859375  C 40.0340909090909 80.8316761363636  41.1666666666667 80.4545454545455  42.5454545454545 81  L 95 81  L 95 36.2045454545455  C 94.5454545454545 35.03125  94.9886363636364 34.0674715909091  95.875 33.3132102272727  C 96.7613636363636 32.5589488636364  97.8939393939394 32.1818181818182  99.2727272727273 32.1818181818182  L 108.727272727273 32.1818181818182  C 110.106060606061 32.1818181818182  111.238636363636 32.5589488636364  112.125 33.3132102272727  C 113.011363636364 34.0674715909091  113.454545454545 35.03125  113 36.2045454545455  L 113 81  L 165.454545454545 81  C 166.833333333333 80.4545454545455  167.965909090909 80.8316761363636  168.852272727273 81.5859375  Z M 182.147727272727 155.000710227273  C 186.776515151515 151.061789772727  189.090909090909 146.326704545455  189 140.795454545455  L 189 36.2045454545455  C 189.090909090909 30.6732954545455  186.776515151515 25.9382102272727  182.147727272727 21.9992897727273  C 177.518939393939 18.0603693181818  171.954545454545 16.0909090909091  165.454545454545 16  L 42.5454545454545 16  C 36.0454545454545 16.0909090909091  30.4810606060606 18.0603693181818  25.8522727272727 21.9992897727273  C 21.2234848484849 25.9382102272727  18.9090909090909 30.6732954545455  19 36.2045454545455  L 19 140.795454545455  C 18.9090909090909 146.326704545455  21.2234848484849 151.061789772727  25.8522727272727 155.000710227273  C 30.4810606060606 158.939630681818  36.0454545454545 160.909090909091  42.5454545454545 161  L 165.454545454545 161  C 171.954545454545 160.909090909091  177.518939393939 158.939630681818  182.147727272727 155.000710227273  Z M 195.517045454545 10.6225142045455  C 203.839015151515 17.7041903409091  208 26.2315340909091  208 36.2045454545455  L 208 140.795454545455  C 208 150.768465909091  203.839015151515 159.295809659091  195.517045454545 166.377485795455  C 187.195075757576 173.459161931818  177.174242424242 177  165.454545454545 177  L 42.5454545454545 177  C 30.8257575757576 177  20.8049242424242 173.459161931818  12.4829545454545 166.377485795455  C 4.16098484848485 159.295809659091  0 150.768465909091  0 140.795454545455  L 0 36.2045454545455  C 0 26.2315340909091  4.16098484848485 17.7041903409091  12.4829545454545 10.6225142045455  C 20.8049242424242 3.5408380681818  30.8257575757576 0  42.5454545454545 0  L 165.454545454545 0  C 177.174242424242 0  187.195075757576 3.5408380681818  195.517045454545 10.6225142045455  Z " fill-rule="nonzero" fill="#000000" stroke="none" transform="matrix(1 0 0 1 193 738 )" />
  </g>
</svg>